<svg width="53" height="52" viewBox="0 0 53 52" fill="none" xmlns="http://www.w3.org/2000/svg">
<path d="M30.1043 13.4316L22.8178 0.770125L8.20924 0.749725L0.887358 13.3909L8.17393 26.0524L0.851956 38.6936L8.13858 51.3551L22.7472 51.3755L30.0691 38.7343L44.6776 38.7547L51.9995 26.1135L44.7129 13.452L30.1043 13.4316Z" fill="#4CB752"/>
<path d="M22.8154 0.769423L8.20693 0.749023L0.885046 13.3902L15.4935 13.4105L22.7801 26.0721L30.102 13.4309L22.8154 0.769423Z" fill="#FFAB15"/>
<path d="M44.7123 13.451L30.1038 13.4306L22.7819 26.0718L37.3904 26.0922L44.6771 38.7537L51.999 26.1125L44.7123 13.451Z" fill="#FFAB15"/>
<path d="M22.8164 0.769988L15.4945 13.4111L22.7811 26.0726L30.103 13.4315L22.8164 0.769988Z" fill="#F47C35"/>
<path d="M22.7805 26.0727L8.17199 26.0523L0.850098 38.6935L15.4586 38.7139L22.7452 51.3754L30.0671 38.7343L22.7805 26.0727Z" fill="#FFAB15"/>
<path d="M22.7844 26.0725L15.4625 38.7137L22.7492 51.3752L30.0711 38.7341L22.7844 26.0725Z" fill="#F47C35"/>
<path d="M44.7154 13.4522L37.3935 26.0934L44.6801 38.7549L52.0021 26.1137L44.7154 13.4522Z" fill="#F47C35"/>
</svg>
